<svg width="29" height="30" viewBox="0 0 29 30" fill="none" xmlns="http://www.w3.org/2000/svg">
<mask id="mask0_46_169" style="mask-type:alpha" maskUnits="userSpaceOnUse" x="0" y="0" width="29" height="30">
<rect y="0.5" width="29" height="29" fill="#D9D9D9"/>
</mask>
<g mask="url(#mask0_46_169)">
<path d="M13.2312 20.0796L19.6399 13.6709L18.3479 12.3788L13.2312 17.4958L10.6521 14.9163L9.36005 16.2084L13.2312 20.0796ZM14.5 26.4792C13.0748 26.4792 11.7395 26.2096 10.4941 25.6705C9.24848 25.1314 8.16249 24.3986 7.2361 23.4723C6.30971 22.5459 5.57696 21.4599 5.03784 20.2143C4.49872 18.9689 4.22917 17.6336 4.22917 16.2084C4.22917 14.7831 4.49872 13.4478 5.03784 12.2024C5.57696 10.9568 6.30971 9.87085 7.2361 8.94446C8.16249 8.01807 9.24848 7.28532 10.4941 6.7462C11.7395 6.20708 13.0748 5.93753 14.5 5.93753C15.9252 5.93753 17.2605 6.20708 18.5059 6.7462C19.7515 7.28532 20.8375 8.01807 21.7639 8.94446C22.6903 9.87085 23.423 10.9568 23.9622 12.2024C24.5013 13.4478 24.7708 14.7831 24.7708 16.2084C24.7708 17.6336 24.5013 18.9689 23.9622 20.2143C23.423 21.4599 22.6903 22.5459 21.7639 23.4723C20.8375 24.3986 19.7515 25.1314 18.5059 25.6705C17.2605 26.2096 15.9252 26.4792 14.5 26.4792ZM6.95245 3.9903L8.22603 5.26358L3.55522 9.93439L2.28194 8.66081L6.95245 3.9903ZM22.0476 3.9903L26.7181 8.66081L25.4448 9.93439L20.774 5.26358L22.0476 3.9903Z" fill="white"/>
</g>
</svg>
