<svg width="55" height="55" viewBox="0 0 55 55" fill="none" xmlns="http://www.w3.org/2000/svg">
<mask id="mask0_29_347" style="mask-type:alpha" maskUnits="userSpaceOnUse" x="0" y="0" width="55" height="55">
<rect width="55" height="55" fill="#D9D9D9"/>
</mask>
<g mask="url(#mask0_29_347)">
<path d="M27.5 40.3241L35.8732 31.951L33.4583 29.5361L29.2188 33.7757V23.5778H25.7813V33.7757L21.5417 29.5361L19.1268 31.951L27.5 40.3241ZM12.3401 46.9791C11.1969 46.9791 10.1912 46.5451 9.32308 45.6769C8.45492 44.8088 8.02084 43.8031 8.02084 42.6599V16.0548C8.02084 15.5644 8.09952 15.0965 8.25688 14.6512C8.41386 14.2062 8.64952 13.7956 8.96386 13.4194L12.1814 9.52816C12.5572 9.03736 13.0272 8.66343 13.5913 8.40638C14.1554 8.14934 14.7519 8.02081 15.3805 8.02081H39.5754C40.2041 8.02081 40.8041 8.14934 41.3755 8.40638C41.9469 8.66343 42.4207 9.03736 42.7969 9.52816L46.0362 13.4635C46.3505 13.8397 46.5862 14.254 46.7431 14.7062C46.9005 15.1588 46.9792 15.6305 46.9792 16.1213V42.6599C46.9792 43.8031 46.5451 44.8088 45.6769 45.6769C44.8088 46.5451 43.8031 46.9791 42.66 46.9791H12.3401ZM12.3532 14.6758H42.625L40.1259 11.7007C40.0526 11.6273 39.9682 11.5685 39.8727 11.5242C39.7772 11.4803 39.6781 11.4583 39.5754 11.4583H15.4029C15.3001 11.4583 15.2008 11.4803 15.105 11.5242C15.0095 11.5685 14.9251 11.6273 14.8517 11.7007L12.3532 14.6758Z" fill="white"/>
</g>
</svg>
