<svg width="17" height="18" viewBox="0 0 17 18" fill="none" xmlns="http://www.w3.org/2000/svg">
<mask id="mask0_34_141" style="mask-type:alpha" maskUnits="userSpaceOnUse" x="0" y="0" width="17" height="18">
<rect width="17" height="17" transform="matrix(-1 0 0 1 17 0.5)" fill="#D9D9D9"/>
</mask>
<g mask="url(#mask0_34_141)">
<path d="M10.1114 15.3354C10.389 15.613 10.8391 15.613 11.1167 15.3354C11.3943 15.0578 11.3943 14.6077 11.1167 14.3301L6.84721 10.0606C6.26143 9.47481 6.26143 8.52506 6.84721 7.93928L11.1167 3.66982C11.3943 3.39221 11.3943 2.94212 11.1167 2.66452C10.8391 2.38691 10.389 2.38691 10.1114 2.66452L4.83661 7.93928C4.25082 8.52506 4.25082 9.47481 4.83661 10.0606L10.1114 15.3354Z" fill="white"/>
</g>
</svg>
