<svg width="21" height="20" viewBox="0 0 21 20" fill="none" xmlns="http://www.w3.org/2000/svg">
<mask id="mask0_11_265" style="mask-type:alpha" maskUnits="userSpaceOnUse" x="0" y="0" width="21" height="20">
<rect x="0.5" width="20" height="20" fill="#D9D9D9"/>
</mask>
<g mask="url(#mask0_11_265)">
<path d="M9.31729 13.1025L14.9198 7.5L14.0417 6.62187L9.31729 11.3463L6.94229 8.97125L6.06417 9.84938L9.31729 13.1025ZM4.92313 17.0833C4.50882 17.0833 4.15417 16.9358 3.85917 16.6408C3.56417 16.3458 3.41667 15.9912 3.41667 15.5769V4.42313C3.41667 4.00882 3.56417 3.65417 3.85917 3.35917C4.15417 3.06417 4.50882 2.91667 4.92313 2.91667H8.63146C8.68382 2.45403 8.88576 2.06062 9.23729 1.73646C9.58868 1.41215 10.0109 1.25 10.504 1.25C10.997 1.25 11.4193 1.41215 11.7708 1.73646C12.1224 2.06062 12.3216 2.45403 12.3685 2.91667H16.0769C16.4912 2.91667 16.8458 3.06417 17.1408 3.35917C17.4358 3.65417 17.5833 4.00882 17.5833 4.42313V15.5769C17.5833 15.9912 17.4358 16.3458 17.1408 16.6408C16.8458 16.9358 16.4912 17.0833 16.0769 17.0833H4.92313ZM10.5 3.62187C10.6806 3.62187 10.8299 3.56285 10.9479 3.44479C11.066 3.32674 11.125 3.17743 11.125 2.99687C11.125 2.81632 11.066 2.66701 10.9479 2.54896C10.8299 2.4309 10.6806 2.37187 10.5 2.37187C10.3194 2.37187 10.1701 2.4309 10.0521 2.54896C9.93403 2.66701 9.875 2.81632 9.875 2.99687C9.875 3.17743 9.93403 3.32674 10.0521 3.44479C10.1701 3.56285 10.3194 3.62187 10.5 3.62187Z" fill="#AD46FF"/>
</g>
</svg>
