<svg width="21" height="20" viewBox="0 0 21 20" fill="none" xmlns="http://www.w3.org/2000/svg">
<mask id="mask0_11_245" style="mask-type:alpha" maskUnits="userSpaceOnUse" x="0" y="0" width="21" height="20">
<rect x="0.5" width="20" height="20" fill="#D9D9D9"/>
</mask>
<g mask="url(#mask0_11_245)">
<path d="M10.4847 15.9855C9.84478 15.4996 9.15695 15.1243 8.42123 14.8594C7.68565 14.5945 6.92355 14.462 6.13492 14.462C5.65066 14.462 5.175 14.5172 4.70794 14.6276C4.24087 14.7381 3.79061 14.9008 3.35714 15.1154C3.07434 15.2494 2.80523 15.2294 2.5498 15.0556C2.29438 14.8819 2.16667 14.6358 2.16667 14.3174V5.4652C2.16667 5.28919 2.21197 5.12658 2.30258 4.97739C2.39306 4.82819 2.51872 4.71956 2.67956 4.6515C3.21673 4.38238 3.77659 4.18057 4.35913 4.04608C4.94167 3.91145 5.5336 3.84413 6.13492 3.84413C6.90714 3.84413 7.65906 3.95671 8.39068 4.18186C9.12229 4.40702 9.8254 4.72378 10.5 5.13216V14.5122C11.1696 14.0766 11.876 13.7552 12.6192 13.5479C13.3625 13.3405 14.1111 13.2369 14.8651 13.2369C15.3209 13.2369 15.7363 13.2659 16.1113 13.3241C16.4862 13.3822 16.9204 13.4903 17.4139 13.6483C17.4698 13.6641 17.522 13.6655 17.5704 13.6524C17.6187 13.6392 17.6429 13.596 17.6429 13.5227V4.34991C17.7802 4.39184 17.9142 4.43846 18.045 4.48978C18.1757 4.5411 18.3032 4.60549 18.4274 4.68295C18.5627 4.75101 18.6642 4.85045 18.7317 4.98127C18.7995 5.11222 18.8333 5.25257 18.8333 5.40231V14.3017C18.8333 14.6201 18.7018 14.8649 18.4387 15.036C18.1757 15.2072 17.8952 15.2285 17.597 15.0997C17.1687 14.8902 16.7249 14.7315 16.2655 14.6237C15.8061 14.5159 15.3393 14.462 14.8651 14.462C14.0714 14.462 13.3017 14.5905 12.556 14.8475C11.8101 15.1047 11.1196 15.484 10.4847 15.9855ZM12.0873 12.4201V5.06927L16.0556 0.985474V8.74469L12.0873 12.4201Z" fill="#AD46FF"/>
</g>
</svg>
