<svg width="21" height="20" viewBox="0 0 21 20" fill="none" xmlns="http://www.w3.org/2000/svg">
<mask id="mask0_11_271" style="mask-type:alpha" maskUnits="userSpaceOnUse" x="0" y="0" width="21" height="20">
<rect x="0.5" width="20" height="20" fill="#D9D9D9"/>
</mask>
<g mask="url(#mask0_11_271)">
<path d="M5.75646 17.9167C5.33549 17.9167 4.97917 17.7709 4.6875 17.4792C4.39583 17.1875 4.25 16.8312 4.25 16.4102V3.58983C4.25 3.16886 4.39583 2.81254 4.6875 2.52087C4.97917 2.22921 5.33549 2.08337 5.75646 2.08337H15.2435C15.6645 2.08337 16.0208 2.22921 16.3125 2.52087C16.6042 2.81254 16.75 3.16886 16.75 3.58983V16.4102C16.75 16.8312 16.6042 17.1875 16.3125 17.4792C16.0208 17.7709 15.6645 17.9167 15.2435 17.9167H5.75646ZM10.0833 8.79817L11.9583 7.67629L13.8333 8.79817V3.33337H10.0833V8.79817Z" fill="#AD46FF"/>
</g>
</svg>
