<svg width="21" height="20" viewBox="0 0 21 20" fill="none" xmlns="http://www.w3.org/2000/svg">
<mask id="mask0_11_239" style="mask-type:alpha" maskUnits="userSpaceOnUse" x="0" y="0" width="21" height="20">
<rect x="0.5" width="20" height="20" fill="#D9D9D9"/>
</mask>
<g mask="url(#mask0_11_239)">
<path d="M3 19.1267V16.8751H18V19.1267H3ZM4.875 14.5585V12.0255L13.2823 3.62376C13.3909 3.51506 13.5142 3.43281 13.6523 3.37702C13.7901 3.32123 13.9326 3.29333 14.0798 3.29333C14.2317 3.29333 14.3774 3.32123 14.5168 3.37702C14.6562 3.43281 14.7841 3.51893 14.9004 3.63539L15.8019 4.54898C15.9183 4.65769 16.0024 4.78178 16.0543 4.92125C16.1062 5.06085 16.1321 5.20664 16.1321 5.35863C16.1321 5.49823 16.1062 5.63701 16.0543 5.77499C16.0024 5.91309 15.9183 6.04036 15.8019 6.15682L7.40625 14.5585H4.875ZM13.9429 6.41238L15.0071 5.34718L14.0798 4.41914L13.0153 5.48415L13.9429 6.41238Z" fill="#AD46FF"/>
</g>
</svg>
