<svg width="21" height="20" viewBox="0 0 21 20" fill="none" xmlns="http://www.w3.org/2000/svg">
<mask id="mask0_11_158" style="mask-type:alpha" maskUnits="userSpaceOnUse" x="0" y="0" width="21" height="20">
<rect x="0.5" width="20" height="20" fill="#D9D9D9"/>
</mask>
<g mask="url(#mask0_11_158)">
<path d="M7.29481 14.8718H8.28856V13.2052H9.95523V12.2114H8.28856V10.5448H7.29481V12.2114H5.62815V13.2052H7.29481V14.8718ZM11.4615 14.2468H15.3719V13.2531H11.4615V14.2468ZM11.4615 12.1635H15.3719V11.1698H11.4615V12.1635ZM5.83648 7.5385H9.7469V6.54475H5.83648V7.5385ZM4.92315 17.0833C4.50217 17.0833 4.14585 16.9375 3.85419 16.6458C3.56252 16.3541 3.41669 15.9978 3.41669 15.5768V4.42308C3.41669 4.00211 3.56252 3.64579 3.85419 3.35413C4.14585 3.06246 4.50217 2.91663 4.92315 2.91663H16.0769C16.4979 2.91663 16.8542 3.06246 17.1459 3.35413C17.4375 3.64579 17.5834 4.00211 17.5834 4.42308V15.5768C17.5834 15.9978 17.4375 16.3541 17.1459 16.6458C16.8542 16.9375 16.4979 17.0833 16.0769 17.0833H4.92315ZM12.25 8.93267L13.4167 7.766L14.5834 8.93267L15.2821 8.23392L14.1154 7.04163L15.2821 5.87496L14.5834 5.17621L13.4167 6.34288L12.25 5.17621L11.5513 5.87496L12.7179 7.04163L11.5513 8.23392L12.25 8.93267Z" fill="#AD46FF"/>
</g>
</svg>
