<svg width="29" height="30" viewBox="0 0 29 30" fill="none" xmlns="http://www.w3.org/2000/svg">
<mask id="mask0_34_107" style="mask-type:alpha" maskUnits="userSpaceOnUse" x="0" y="0" width="29" height="30">
<rect y="0.5" width="29" height="29" fill="#D9D9D9"/>
</mask>
<g mask="url(#mask0_34_107)">
<path d="M14.5 17.5097C14.2042 17.5097 13.952 17.4055 13.7436 17.1971C13.5353 16.9888 13.4312 16.7367 13.4312 16.4407C13.4312 16.1448 13.5353 15.8927 13.7436 15.6842C13.952 15.476 14.2042 15.3719 14.5 15.3719C14.7958 15.3719 15.048 15.476 15.2564 15.6842C15.4646 15.8927 15.5688 16.1448 15.5688 16.4407C15.5688 16.7367 15.4646 16.9888 15.2564 17.1971C15.048 17.4055 14.7958 17.5097 14.5 17.5097ZM9.66666 17.5097C9.37082 17.5097 9.11868 17.4055 8.91024 17.1971C8.702 16.9888 8.59789 16.7367 8.59789 16.4407C8.59789 16.1448 8.702 15.8927 8.91024 15.6842C9.11868 15.476 9.37082 15.3719 9.66666 15.3719C9.9625 15.3719 10.2146 15.476 10.4231 15.6842C10.6313 15.8927 10.7354 16.1448 10.7354 16.4407C10.7354 16.7367 10.6313 16.9888 10.4231 17.1971C10.2146 17.4055 9.9625 17.5097 9.66666 17.5097ZM19.3333 17.5097C19.0375 17.5097 18.7853 17.4055 18.5769 17.1971C18.3687 16.9888 18.2646 16.7367 18.2646 16.4407C18.2646 16.1448 18.3687 15.8927 18.5769 15.6842C18.7853 15.476 19.0375 15.3719 19.3333 15.3719C19.6292 15.3719 19.8813 15.476 20.0897 15.6842C20.298 15.8927 20.4021 16.1448 20.4021 16.4407C20.4021 16.7367 20.298 16.9888 20.0897 17.1971C19.8813 17.4055 19.6292 17.5097 19.3333 17.5097ZM14.5 22.25C14.2042 22.25 13.952 22.1458 13.7436 21.9374C13.5353 21.7291 13.4312 21.4771 13.4312 21.1812C13.4312 20.8852 13.5353 20.6331 13.7436 20.4248C13.952 20.2164 14.2042 20.1122 14.5 20.1122C14.7958 20.1122 15.048 20.2164 15.2564 20.4248C15.4646 20.6331 15.5688 20.8852 15.5688 21.1812C15.5688 21.4771 15.4646 21.7291 15.2564 21.9374C15.048 22.1458 14.7958 22.25 14.5 22.25ZM9.66666 22.25C9.37082 22.25 9.11868 22.1458 8.91024 21.9374C8.702 21.7291 8.59789 21.4771 8.59789 21.1812C8.59789 20.8852 8.702 20.6331 8.91024 20.4248C9.11868 20.2164 9.37082 20.1122 9.66666 20.1122C9.9625 20.1122 10.2146 20.2164 10.4231 20.4248C10.6313 20.6331 10.7354 20.8852 10.7354 21.1812C10.7354 21.4771 10.6313 21.7291 10.4231 21.9374C10.2146 22.1458 9.9625 22.25 9.66666 22.25ZM19.3333 22.25C19.0375 22.25 18.7853 22.1458 18.5769 21.9374C18.3687 21.7291 18.2646 21.4771 18.2646 21.1812C18.2646 20.8852 18.3687 20.6331 18.5769 20.4248C18.7853 20.2164 19.0375 20.1122 19.3333 20.1122C19.6292 20.1122 19.8813 20.2164 20.0897 20.4248C20.298 20.6331 20.4021 20.8852 20.4021 21.1812C20.4021 21.4771 20.298 21.7291 20.0897 21.9374C19.8813 22.1458 19.6292 22.25 19.3333 22.25ZM6.41352 26.4792C5.80311 26.4792 5.28645 26.2677 4.86353 25.8448C4.44061 25.4219 4.22916 24.9052 4.22916 24.2948V8.12188C4.22916 7.51147 4.44061 6.99481 4.86353 6.57189C5.28645 6.14898 5.80311 5.93752 6.41352 5.93752H8.08646V3.38159H9.94548V5.93752H19.101V3.38159H20.9135V5.93752H22.5865C23.1969 5.93752 23.7135 6.14898 24.1364 6.57189C24.5594 6.99481 24.7708 7.51147 24.7708 8.12188V24.2948C24.7708 24.9052 24.5594 25.4219 24.1364 25.8448C23.7135 26.2677 23.1969 26.4792 22.5865 26.4792H6.41352ZM6.41352 24.6667H22.5865C22.6795 24.6667 22.7647 24.6279 22.842 24.5504C22.9196 24.4731 22.9583 24.3879 22.9583 24.2948V12.9552H6.04166V24.2948C6.04166 24.3879 6.08042 24.4731 6.15796 24.5504C6.23529 24.6279 6.32048 24.6667 6.41352 24.6667Z" fill="white"/>
</g>
</svg>
