<svg width="55" height="55" viewBox="0 0 55 55" fill="none" xmlns="http://www.w3.org/2000/svg">
<mask id="mask0_29_366" style="mask-type:alpha" maskUnits="userSpaceOnUse" x="0" y="0" width="55" height="55">
<rect width="55" height="55" fill="#D9D9D9"/>
</mask>
<g mask="url(#mask0_29_366)">
<path d="M24.2917 36.3315L39.6985 20.9246L37.2837 18.5098L24.2917 31.5018L17.7604 24.9706L15.3456 27.3854L24.2917 36.3315ZM12.1636 46.9791C11.0059 46.9791 10.026 46.5781 9.22396 45.776C8.42187 44.9739 8.02083 43.9941 8.02083 42.8364V12.1636C8.02083 11.0059 8.42187 10.026 9.22396 9.22394C10.026 8.42185 11.0059 8.02081 12.1636 8.02081H42.8364C43.9941 8.02081 44.974 8.42185 45.776 9.22394C46.5781 10.026 46.9792 11.0059 46.9792 12.1636V42.8364C46.9792 43.9941 46.5781 44.9739 45.776 45.776C44.974 46.5781 43.9941 46.9791 42.8364 46.9791H12.1636Z" fill="white"/>
</g>
</svg>
