<svg width="55" height="55" viewBox="0 0 55 55" fill="none" xmlns="http://www.w3.org/2000/svg">
<mask id="mask0_37_932" style="mask-type:alpha" maskUnits="userSpaceOnUse" x="0" y="0" width="55" height="55">
<rect width="55" height="55" fill="#D9D9D9"/>
</mask>
<g mask="url(#mask0_37_932)">
<path d="M14.3229 38.3855H29.2188V34.948H14.3229V38.3855ZM37.2396 38.3855H40.6771V16.6146H37.2396V38.3855ZM14.3229 29.2188H29.2188V25.7813H14.3229V29.2188ZM14.3229 20.0521H29.2188V16.6146H14.3229V20.0521ZM9.87193 46.9792C8.71426 46.9792 7.73438 46.5782 6.9323 45.7761C6.13021 44.974 5.72917 43.9941 5.72917 42.8364V12.1636C5.72917 11.006 6.13021 10.0261 6.9323 9.224C7.73438 8.42192 8.71426 8.02087 9.87193 8.02087H45.1281C46.2858 8.02087 47.2656 8.42192 48.0677 9.224C48.8698 10.0261 49.2708 11.006 49.2708 12.1636V42.8364C49.2708 43.9941 48.8698 44.974 48.0677 45.7761C47.2656 46.5782 46.2858 46.9792 45.1281 46.9792H9.87193Z" fill="white"/>
</g>
</svg>
