<svg width="55" height="55" viewBox="0 0 55 55" fill="none" xmlns="http://www.w3.org/2000/svg">
<mask id="mask0_37_1132" style="mask-type:alpha" maskUnits="userSpaceOnUse" x="0" y="0" width="55" height="55">
<rect width="55" height="55" fill="#D9D9D9"/>
</mask>
<g mask="url(#mask0_37_1132)">
<path d="M27.5211 25.3631C32.6203 25.3631 36.9491 24.5732 40.5073 22.9935C44.0653 21.4137 45.8442 19.5062 45.8442 17.2707C45.8442 15.0349 44.0653 13.1272 40.5073 11.5475C36.9491 9.96772 32.6203 9.17786 27.5211 9.17786C22.4223 9.17786 18.0903 9.96772 14.5252 11.5475C10.9601 13.1272 9.17755 15.0349 9.17755 17.2707C9.17755 19.5062 10.9601 21.4137 14.5252 22.9935C18.0903 24.5732 22.4223 25.3631 27.5211 25.3631ZM27.5006 29.7208C29.112 29.7208 30.9222 29.575 32.9313 29.2833C34.9404 28.9912 36.8549 28.538 38.675 27.9237C40.4948 27.3097 42.0754 26.5268 43.4169 25.5751C44.7588 24.6234 45.5679 23.4875 45.8442 22.1675V28.0612C45.5679 29.3809 44.7588 30.5166 43.4169 31.4683C42.0754 32.4201 40.4948 33.2031 38.675 33.8174C36.8549 34.4314 34.9404 34.8844 32.9313 35.1765C30.9222 35.4682 29.112 35.614 27.5006 35.614C25.8893 35.614 24.0791 35.4682 22.07 35.1765C20.0609 34.8844 18.1499 34.4314 16.337 33.8174C14.5241 33.2031 12.9467 32.4201 11.6048 31.4683C10.2629 30.5166 9.45383 29.3809 9.17755 28.0612V22.1675C9.45383 23.4875 10.2629 24.6234 11.6048 25.5751C12.9467 26.5268 14.5241 27.3097 16.337 27.9237C18.1499 28.538 20.0609 28.9912 22.07 29.2833C24.0791 29.575 25.8893 29.7208 27.5006 29.7208ZM27.5006 39.9718C29.112 39.9718 30.9222 39.8259 32.9313 39.5342C34.9404 39.2422 36.8549 38.789 38.675 38.1746C40.4948 37.5607 42.0754 36.7778 43.4169 35.8261C44.7588 34.874 45.5679 33.7381 45.8442 32.4184V38.2912C45.5679 39.6109 44.7588 40.7466 43.4169 41.6983C42.0754 42.65 40.4948 43.433 38.675 44.0474C36.8549 44.6617 34.9404 45.1147 32.9313 45.4064C30.9222 45.6985 29.112 45.8445 27.5006 45.8445C25.8893 45.8445 24.0791 45.6985 22.07 45.4064C20.0609 45.1147 18.1499 44.6617 16.337 44.0474C14.5241 43.433 12.9467 42.65 11.6048 41.6983C10.2629 40.7466 9.45383 39.6109 9.17755 38.2912V32.4184C9.45383 33.7381 10.2629 34.874 11.6048 35.8261C12.9467 36.7778 14.5241 37.5607 16.337 38.1746C18.1499 38.789 20.0609 39.2422 22.07 39.5342C24.0791 39.8259 25.8893 39.9718 27.5006 39.9718Z" fill="white"/>
</g>
</svg>
