<svg width="21" height="20" viewBox="0 0 21 20" fill="none" xmlns="http://www.w3.org/2000/svg">
<mask id="mask0_11_155" style="mask-type:alpha" maskUnits="userSpaceOnUse" x="0" y="0" width="21" height="20">
<rect x="0.5" width="20" height="20" fill="#D9D9D9"/>
</mask>
<g mask="url(#mask0_11_155)">
<path d="M3.99354 11.7982H4.78688L5.25792 10.4713H7.53687L8.02083 11.7982H8.80938L6.83646 6.5513H5.95833L3.99354 11.7982ZM5.51292 9.78047L6.37667 7.39109H6.41833L7.28208 9.78047H5.51292ZM12.1185 8.12192V7.02568C12.5716 6.81526 13.0457 6.65741 13.5408 6.55213C14.0361 6.44686 14.5503 6.39422 15.0833 6.39422C15.4178 6.39422 15.7426 6.41804 16.0577 6.46568C16.3728 6.51318 16.6891 6.57595 17.0065 6.65401V7.6988C16.6945 7.58977 16.3844 7.51068 16.076 7.46151C15.7678 7.41234 15.4369 7.38776 15.0833 7.38776C14.5503 7.38776 14.034 7.45109 13.5344 7.57776C13.0349 7.70443 12.563 7.88581 12.1185 8.12192ZM12.1185 12.6892V11.5769C12.5609 11.3665 13.0337 11.2087 13.5369 11.1034C14.0401 10.9982 14.5556 10.9457 15.0833 10.9457C15.4178 10.9457 15.7426 10.9694 16.0577 11.0169C16.3728 11.0644 16.6891 11.1272 17.0065 11.2053V12.2501C16.6945 12.141 16.3844 12.0619 16.076 12.0128C15.7678 11.9637 15.4369 11.9392 15.0833 11.9392C14.5503 11.9392 14.034 12.003 13.5344 12.1307C13.0349 12.2583 12.563 12.4445 12.1185 12.6892ZM12.1185 10.4136V9.3013C12.5716 9.09088 13.0457 8.93304 13.5408 8.82776C14.0361 8.72248 14.5503 8.66984 15.0833 8.66984C15.4178 8.66984 15.7426 8.69366 16.0577 8.7413C16.3728 8.7888 16.6891 8.85158 17.0065 8.92963V9.97442C16.6945 9.8654 16.3844 9.7863 16.076 9.73713C15.7678 9.68811 15.4369 9.66359 15.0833 9.66359C14.5503 9.66359 14.034 9.72956 13.5344 9.86151C13.0349 9.99345 12.563 10.1775 12.1185 10.4136ZM11.125 14.3207C11.7682 13.9862 12.4162 13.7407 13.069 13.5842C13.7217 13.4277 14.3932 13.3494 15.0833 13.3494C15.5833 13.3494 16.0529 13.3857 16.4921 13.4584C16.9311 13.531 17.3483 13.6346 17.7435 13.7692C17.8077 13.796 17.8665 13.7921 17.9198 13.7573C17.9733 13.7226 18 13.6678 18 13.593V5.71151C18 5.66345 17.9867 5.62075 17.96 5.58338C17.9332 5.54602 17.8878 5.51394 17.8237 5.48713C17.3654 5.3088 16.9191 5.18033 16.4848 5.10172C16.0505 5.02325 15.5833 4.98401 15.0833 4.98401C14.3932 4.98401 13.7073 5.07936 13.0256 5.27005C12.344 5.46075 11.7104 5.74679 11.125 6.12818V14.3207ZM10.5 16.1538C9.82806 15.6581 9.10319 15.2751 8.32542 15.0048C7.54764 14.7346 6.74472 14.5994 5.91667 14.5994C5.40819 14.5994 4.90875 14.6557 4.41833 14.7684C3.92792 14.8812 3.45514 15.0471 3 15.2661C2.70306 15.4028 2.42049 15.3811 2.15229 15.2011C1.8841 15.0211 1.75 14.766 1.75 14.4359V5.38797C1.75 5.20838 1.79625 5.03984 1.88875 4.88234C1.98111 4.7247 2.11437 4.61116 2.28854 4.54172C2.85257 4.26713 3.44042 4.06387 4.05208 3.93193C4.66375 3.79998 5.28528 3.73401 5.91667 3.73401C6.7275 3.73401 7.51972 3.84484 8.29333 4.06651C9.06681 4.28831 9.80236 4.61554 10.5 5.04818C11.1976 4.61554 11.9332 4.28831 12.7067 4.06651C13.4803 3.84484 14.2725 3.73401 15.0833 3.73401C15.7147 3.73401 16.3363 3.79998 16.9479 3.93193C17.5596 4.06387 18.1474 4.26713 18.7115 4.54172C18.8856 4.61116 19.0189 4.7247 19.1113 4.88234C19.2038 5.03984 19.25 5.20838 19.25 5.38797V14.4359C19.25 14.766 19.1106 15.0185 18.8317 15.1932C18.5528 15.3678 18.2595 15.3867 17.9519 15.2501C17.5022 15.0363 17.0361 14.8744 16.5538 14.7644C16.0714 14.6544 15.5812 14.5994 15.0833 14.5994C14.2553 14.5994 13.4524 14.7346 12.6746 15.0048C11.8968 15.2751 11.1719 15.6581 10.5 16.1538Z" fill="#AD46FF"/>
</g>
</svg>
