<svg width="55" height="55" viewBox="0 0 55 55" fill="none" xmlns="http://www.w3.org/2000/svg">
<mask id="mask0_37_1113" style="mask-type:alpha" maskUnits="userSpaceOnUse" x="0" y="0" width="55" height="55">
<rect width="55" height="55" fill="#D9D9D9"/>
</mask>
<g mask="url(#mask0_37_1113)">
<path d="M17.7604 33.4492H20.4927V25.4289H17.7604V28.0729H14.3229V30.8052H17.7604V33.4492ZM22.7843 30.8052H40.6771V28.0729H22.7843V30.8052ZM34.5073 24.9878H37.2396V22.3438H40.6771V19.6115H37.2396V16.9675H34.5073V24.9878ZM14.3229 22.3438H32.2157V19.6115H14.3229V22.3438ZM19.4792 46.9792V42.3958H9.87193C8.71426 42.3958 7.73438 41.9948 6.9323 41.1927C6.13021 40.3906 5.72917 39.4108 5.72917 38.2531V12.1636C5.72917 11.0059 6.13021 10.0261 6.9323 9.22397C7.73438 8.42189 8.71426 8.02084 9.87193 8.02084H45.1281C46.2858 8.02084 47.2656 8.42189 48.0677 9.22397C48.8698 10.0261 49.2708 11.0059 49.2708 12.1636V38.2531C49.2708 39.4108 48.8698 40.3906 48.0677 41.1927C47.2656 41.9948 46.2858 42.3958 45.1281 42.3958H35.5208V46.9792H19.4792Z" fill="white"/>
</g>
</svg>
