<svg width="21" height="20" viewBox="0 0 21 20" fill="none" xmlns="http://www.w3.org/2000/svg">
<mask id="mask0_11_167" style="mask-type:alpha" maskUnits="userSpaceOnUse" x="0" y="0" width="21" height="20">
<rect x="0.5" width="20" height="20" fill="#D9D9D9"/>
</mask>
<g mask="url(#mask0_11_167)">
<path d="M9.87502 17.9166C9.37933 17.9166 8.88544 17.8552 8.39335 17.7322C7.90141 17.6095 7.41238 17.4295 6.92627 17.1922C7.1571 15.6827 7.64856 14.2722 8.40065 12.9608C9.15273 11.6492 10.1047 10.4914 11.2565 9.48724C9.88898 10.2275 8.70363 11.1831 7.70044 12.3541C6.69724 13.5251 6.00544 14.8579 5.62502 16.3524C5.56419 16.3055 5.50808 16.2577 5.45669 16.2091C5.40544 16.1605 5.3494 16.1057 5.28856 16.0447C4.68384 15.4295 4.22071 14.7431 3.89919 13.9856C3.57752 13.2281 3.41669 12.4412 3.41669 11.6249C3.41669 10.734 3.59217 9.88328 3.94315 9.07286C4.29412 8.26244 4.78426 7.54265 5.41356 6.91348C6.46912 5.85793 7.82863 5.17071 9.4921 4.85182C11.1554 4.53279 13.5438 4.48814 16.6571 4.71786C16.8857 7.83439 16.8387 10.2188 16.5161 11.871C16.1934 13.5232 15.5086 14.8728 14.4615 15.9197C13.829 16.5629 13.1167 17.0565 12.3246 17.4006C11.5324 17.7446 10.7159 17.9166 9.87502 17.9166Z" fill="#AD46FF"/>
</g>
</svg>
