<svg width="21" height="20" viewBox="0 0 21 20" fill="none" xmlns="http://www.w3.org/2000/svg">
<mask id="mask0_11_173" style="mask-type:alpha" maskUnits="userSpaceOnUse" x="0" y="0" width="21" height="20">
<rect x="0.5" width="20" height="20" fill="#D9D9D9"/>
</mask>
<g mask="url(#mask0_11_173)">
<path d="M4.66666 17.0833C4.13513 17.0833 3.75736 16.8461 3.53333 16.3718C3.30916 15.8974 3.36326 15.4561 3.69562 15.0481L8.41666 9.31079V4.16663H7.42312C7.24604 4.16663 7.09756 4.1067 6.9777 3.98683C6.85798 3.86697 6.79812 3.7185 6.79812 3.54142C6.79812 3.3642 6.85798 3.21579 6.9777 3.09621C7.09756 2.97649 7.24604 2.91663 7.42312 2.91663H13.5769C13.754 2.91663 13.9024 2.97656 14.0223 3.09642C14.142 3.21628 14.2019 3.36475 14.2019 3.54183C14.2019 3.71906 14.142 3.86746 14.0223 3.98704C13.9024 4.10677 13.754 4.16663 13.5769 4.16663H12.5833V9.31079L17.3044 15.0481C17.6367 15.4561 17.6908 15.8974 17.4667 16.3718C17.2426 16.8461 16.8649 17.0833 16.3333 17.0833H4.66666ZM6.33333 15H14.6667L11.8333 11.6666H9.16666L6.33333 15Z" fill="#AD46FF"/>
</g>
</svg>
