<svg width="55" height="55" viewBox="0 0 55 55" fill="none" xmlns="http://www.w3.org/2000/svg">
<mask id="mask0_37_944" style="mask-type:alpha" maskUnits="userSpaceOnUse" x="0" y="0" width="55" height="55">
<rect width="55" height="55" fill="#D9D9D9"/>
</mask>
<g mask="url(#mask0_37_944)">
<path d="M16.3064 39.2225C15.7319 39.2225 15.2503 39.0283 14.8615 38.6399C14.473 38.2514 14.2788 37.77 14.2788 37.1956V33.7581H42.6382L43.3652 34.4851V13.7501H46.8027C47.3771 13.7501 47.8586 13.9443 48.247 14.3327C48.6358 14.7216 48.8303 15.203 48.8303 15.7771V47.3316L40.7212 39.2225H16.3064ZM6.16974 37.2838V7.7568C6.16974 7.18236 6.36415 6.70072 6.75297 6.3119C7.14141 5.92347 7.62285 5.72925 8.19729 5.72925H36.7549C37.3293 5.72925 37.8108 5.92347 38.1992 6.3119C38.5877 6.70072 38.7819 7.18236 38.7819 7.7568V27.1477C38.7819 27.7218 38.5877 28.2032 38.1992 28.5921C37.8108 28.9805 37.3293 29.1747 36.7549 29.1747H14.2788L6.16974 37.2838Z" fill="white"/>
</g>
</svg>
