<svg width="21" height="20" viewBox="0 0 21 20" fill="none" xmlns="http://www.w3.org/2000/svg">
<mask id="mask0_11_164" style="mask-type:alpha" maskUnits="userSpaceOnUse" x="0" y="0" width="21" height="20">
<rect x="0.5" width="20" height="20" fill="#D9D9D9"/>
</mask>
<g mask="url(#mask0_11_164)">
<path d="M1.99854 16.0897V14.237C1.99854 13.8076 2.10937 13.4243 2.33104 13.0872C2.5527 12.7502 2.84874 12.4879 3.21916 12.3006C4.0111 11.9132 4.80742 11.6145 5.60812 11.4045C6.40895 11.1947 7.28902 11.0897 8.24833 11.0897C9.20777 11.0897 10.0878 11.1947 10.8885 11.4045C11.6894 11.6145 12.4858 11.9132 13.2777 12.3006C13.6481 12.4879 13.9442 12.7502 14.1658 13.0872C14.3875 13.4243 14.4983 13.8076 14.4983 14.237V16.0897H1.99854ZM16.165 16.0897V14.1345C16.165 13.5876 16.0311 13.0663 15.7633 12.5706C15.4954 12.075 15.1154 11.6498 14.6233 11.2949C15.1821 11.3783 15.7126 11.5072 16.2148 11.6818C16.7169 11.8565 17.196 12.063 17.6523 12.3012C18.0828 12.5309 18.4153 12.8017 18.6498 13.1135C18.8842 13.4252 19.0015 13.7655 19.0015 14.1345V16.0897H16.165ZM8.24833 9.74349C7.44624 9.74349 6.75965 9.45793 6.18854 8.88682C5.61742 8.31557 5.33187 7.62891 5.33187 6.82682C5.33187 6.02474 5.61742 5.33814 6.18854 4.76703C6.75965 4.19578 7.44624 3.91016 8.24833 3.91016C9.05041 3.91016 9.73708 4.19578 10.3083 4.76703C10.8794 5.33814 11.165 6.02474 11.165 6.82682C11.165 7.62891 10.8794 8.31557 10.3083 8.88682C9.73708 9.45793 9.05041 9.74349 8.24833 9.74349ZM15.4437 6.82682C15.4437 7.62891 15.1582 8.31557 14.5871 8.88682C14.016 9.45793 13.3294 9.74349 12.5273 9.74349C12.4333 9.74349 12.3136 9.7328 12.1683 9.71141C12.0229 9.69002 11.9033 9.66655 11.8094 9.64099C12.138 9.24585 12.3906 8.80752 12.5671 8.32599C12.7435 7.84446 12.8317 7.34446 12.8317 6.82599C12.8317 6.30738 12.7417 5.80925 12.5617 5.33161C12.3817 4.85411 12.1309 4.41453 11.8094 4.01286C11.929 3.97009 12.0486 3.94231 12.1683 3.92953C12.2879 3.91661 12.4076 3.91016 12.5273 3.91016C13.3294 3.91016 14.016 4.19578 14.5871 4.76703C15.1582 5.33814 15.4437 6.02474 15.4437 6.82682Z" fill="#AD46FF"/>
</g>
</svg>
