<svg width="55" height="55" viewBox="0 0 55 55" fill="none" xmlns="http://www.w3.org/2000/svg">
<mask id="mask0_37_911" style="mask-type:alpha" maskUnits="userSpaceOnUse" x="0" y="0" width="55" height="55">
<rect width="55" height="55" fill="#D9D9D9"/>
</mask>
<g mask="url(#mask0_37_911)">
<path d="M27.5441 40.2583C28.1991 40.2583 28.7522 40.0328 29.2033 39.5817C29.6544 39.131 29.8799 38.578 29.8799 37.9225C29.8799 37.2675 29.6544 36.7145 29.2033 36.2634C28.7522 35.8123 28.1991 35.5868 27.5441 35.5868C26.8891 35.5868 26.336 35.8123 25.8849 36.2634C25.4339 36.7145 25.2083 37.2675 25.2083 37.9225C25.2083 38.578 25.4339 39.131 25.8849 39.5817C26.336 40.0328 26.8891 40.2583 27.5441 40.2583ZM25.9222 32.0524H29.1483C29.1777 30.8539 29.3488 29.9409 29.6616 29.3133C29.9744 28.6862 30.6054 27.898 31.5545 26.9489C32.7737 25.7297 33.6455 24.6935 34.1699 23.8402C34.6943 22.9866 34.9565 22.0163 34.9565 20.9293C34.9565 19.0226 34.3059 17.4853 33.0046 16.3173C31.7029 15.1493 30.0268 14.5653 27.9761 14.5653C26.1103 14.5653 24.5157 15.0406 23.1922 15.9913C21.8684 16.9416 20.9275 18.1791 20.3695 19.7038L23.3131 20.8851C23.6393 19.9127 24.1815 19.1187 24.9396 18.503C25.6974 17.8876 26.6479 17.58 27.791 17.58C29.0278 17.58 29.9935 17.9155 30.6883 18.5866C31.3834 19.2581 31.731 20.0741 31.731 21.0347C31.731 21.7428 31.5209 22.4377 31.1008 23.1195C30.6806 23.8013 30.0327 24.5373 29.1569 25.3275C27.9114 26.4497 27.061 27.4913 26.6057 28.4522C26.15 29.4128 25.9222 30.6129 25.9222 32.0524ZM12.1636 46.9792C11.0059 46.9792 10.026 46.5782 9.22395 45.7761C8.42187 44.974 8.02083 43.9941 8.02083 42.8364V12.1636C8.02083 11.006 8.42187 10.0261 9.22395 9.224C10.026 8.42192 11.0059 8.02087 12.1636 8.02087H42.8364C43.9941 8.02087 44.974 8.42192 45.776 9.224C46.5781 10.0261 46.9792 11.006 46.9792 12.1636V42.8364C46.9792 43.9941 46.5781 44.974 45.776 45.7761C44.974 46.5782 43.9941 46.9792 42.8364 46.9792H12.1636Z" fill="white"/>
</g>
</svg>
