<svg width="21" height="20" viewBox="0 0 21 20" fill="none" xmlns="http://www.w3.org/2000/svg">
<mask id="mask0_11_161" style="mask-type:alpha" maskUnits="userSpaceOnUse" x="0" y="0" width="21" height="20">
<rect x="0.5" width="20" height="20" fill="#D9D9D9"/>
</mask>
<g mask="url(#mask0_11_161)">
<path d="M10.5 9.31691C11.3855 9.31691 12.1379 8.99757 12.7571 8.35888C13.3764 7.7202 13.686 6.95145 13.686 6.05263V3.68421H7.31405V6.05263C7.31405 6.95145 7.62367 7.7202 8.24291 8.35888C8.86215 8.99757 9.61452 9.31691 10.5 9.31691ZM4.66669 17.5V16.3158H6.14758V13.9474C6.14758 13.0587 6.38713 12.2497 6.86624 11.5205C7.34535 10.7912 7.98028 10.2843 8.77102 10C7.98028 9.71053 7.34535 9.20244 6.86624 8.47572C6.38713 7.74901 6.14758 6.94132 6.14758 6.05263V3.68421H4.66669V2.5H16.3334V3.68421H14.8525V6.05263C14.8525 6.94132 14.6129 7.74901 14.1338 8.47572C13.6547 9.20244 13.0198 9.71053 12.229 10C13.0198 10.2843 13.6547 10.7912 14.1338 11.5205C14.6129 12.2497 14.8525 13.0587 14.8525 13.9474V16.3158H16.3334V17.5H4.66669Z" fill="#AD46FF"/>
</g>
</svg>
