<svg width="21" height="20" viewBox="0 0 21 20" fill="none" xmlns="http://www.w3.org/2000/svg">
<mask id="mask0_11_233" style="mask-type:alpha" maskUnits="userSpaceOnUse" x="0" y="0" width="21" height="20">
<rect x="0.5" width="20" height="20" fill="#D9D9D9"/>
</mask>
<g mask="url(#mask0_11_233)">
<path d="M9.875 13.9584H11.125V9.16671H9.875V13.9584ZM10.5 7.74046C10.6907 7.74046 10.8506 7.67594 10.9796 7.54692C11.1086 7.41789 11.1731 7.25803 11.1731 7.06733C11.1731 6.87664 11.1086 6.71678 10.9796 6.58775C10.8506 6.45886 10.6907 6.39442 10.5 6.39442C10.3093 6.39442 10.1494 6.45886 10.0204 6.58775C9.89139 6.71678 9.82687 6.87664 9.82687 7.06733C9.82687 7.25803 9.89139 7.41789 10.0204 7.54692C10.1494 7.67594 10.3093 7.74046 10.5 7.74046ZM10.5015 17.9167C9.40646 17.9167 8.37722 17.7089 7.41375 17.2934C6.45028 16.8778 5.61222 16.3139 4.89958 15.6015C4.18694 14.8891 3.62271 14.0514 3.20687 13.0884C2.79118 12.1253 2.58333 11.0964 2.58333 10.0015C2.58333 8.9065 2.79111 7.87726 3.20667 6.91379C3.62222 5.95032 4.18618 5.11226 4.89854 4.39962C5.6109 3.68698 6.44861 3.12275 7.41167 2.70692C8.37472 2.29122 9.40368 2.08337 10.4985 2.08337C11.5935 2.08337 12.6228 2.29115 13.5863 2.70671C14.5497 3.12226 15.3878 3.68622 16.1004 4.39858C16.8131 5.11094 17.3773 5.94865 17.7931 6.91171C18.2088 7.87476 18.4167 8.90372 18.4167 9.99858C18.4167 11.0936 18.2089 12.1228 17.7933 13.0863C17.3778 14.0498 16.8138 14.8878 16.1015 15.6005C15.3891 16.3131 14.5514 16.8773 13.5883 17.2932C12.6253 17.7089 11.5963 17.9167 10.5015 17.9167Z" fill="#AD46FF"/>
</g>
</svg>
