<svg width="55" height="55" viewBox="0 0 55 55" fill="none" xmlns="http://www.w3.org/2000/svg">
<mask id="mask0_37_1138" style="mask-type:alpha" maskUnits="userSpaceOnUse" x="0" y="0" width="55" height="55">
<rect width="55" height="55" fill="#D9D9D9"/>
</mask>
<g mask="url(#mask0_37_1138)">
<path d="M5.46506 24.5472L16.0858 5.7074L26.7065 24.5472H5.46506ZM16.1076 47.5739C13.7193 47.5739 11.6862 46.7351 10.0083 45.0576C8.33079 43.3801 7.49204 41.347 7.49204 38.9583C7.49204 36.5846 8.33079 34.5551 10.0083 32.87C11.6862 31.1852 13.7193 30.3428 16.1076 30.3428C18.4817 30.3428 20.5112 31.1852 22.1959 32.87C23.8811 34.5551 24.7236 36.5846 24.7236 38.9583C24.7236 41.347 23.8811 43.3801 22.1959 45.0576C20.5112 46.7351 18.4817 47.5739 16.1076 47.5739ZM30.3869 47.5739V30.3428H47.618V47.5739H30.3869ZM39.0025 24.5472C37.2073 23.0664 35.648 21.7693 34.3246 20.6559C33.0008 19.5426 31.9071 18.5193 31.0435 17.5863C30.1795 16.6535 29.5346 15.7523 29.1088 14.8827C28.6825 14.013 28.4694 13.0934 28.4694 12.1241C28.4694 10.5814 28.994 9.29157 30.0432 8.25459C31.092 7.21723 32.411 6.69854 34.0003 6.69854C34.9727 6.69854 35.8822 6.93 36.7285 7.39292C37.5746 7.85583 38.3325 8.52195 39.0025 9.39125C39.6724 8.53646 40.4378 7.87398 41.2987 7.4038C42.1592 6.93363 43.0684 6.69854 44.0264 6.69854C45.6011 6.69854 46.9129 7.22811 47.9617 8.28724C49.0105 9.34676 49.535 10.6477 49.535 12.19C49.535 13.1448 49.322 14.0535 48.8961 14.9159C48.4703 15.7779 47.8254 16.6717 46.9614 17.5971C46.0978 18.523 45.0041 19.5426 43.6803 20.6559C42.3569 21.7693 40.7976 23.0664 39.0025 24.5472Z" fill="white"/>
</g>
</svg>
