<svg width="21" height="20" viewBox="0 0 21 20" fill="none" xmlns="http://www.w3.org/2000/svg">
<mask id="mask0_11_197" style="mask-type:alpha" maskUnits="userSpaceOnUse" x="0" y="0" width="21" height="20">
<rect x="0.5" width="20" height="20" fill="#D9D9D9"/>
</mask>
<g mask="url(#mask0_11_197)">
<path d="M10.5 17.9809C10.079 17.9809 9.71604 17.835 9.41104 17.5434C9.10604 17.2517 8.94021 16.8954 8.91354 16.4744H12.0865C12.0598 16.8954 11.894 17.2517 11.589 17.5434C11.284 17.835 10.921 17.9809 10.5 17.9809ZM7.375 15.3205V14.0705H13.625V15.3205H7.375ZM7.50312 12.9167C6.63035 12.3739 5.93944 11.6648 5.43042 10.7892C4.92125 9.91379 4.66667 8.95629 4.66667 7.91671C4.66667 6.29282 5.23292 4.91462 6.36542 3.78212C7.49792 2.64962 8.87611 2.08337 10.5 2.08337C12.1239 2.08337 13.5021 2.64962 14.6346 3.78212C15.7671 4.91462 16.3333 6.29282 16.3333 7.91671C16.3333 8.95629 16.0788 9.91379 15.5696 10.7892C15.0606 11.6648 14.3697 12.3739 13.4969 12.9167H7.50312Z" fill="#AD46FF"/>
</g>
</svg>
