<svg width="55" height="55" viewBox="0 0 55 55" fill="none" xmlns="http://www.w3.org/2000/svg">
<mask id="mask0_29_397" style="mask-type:alpha" maskUnits="userSpaceOnUse" x="0" y="0" width="55" height="55">
<rect width="55" height="55" fill="#D9D9D9"/>
</mask>
<g mask="url(#mask0_29_397)">
<path d="M32.6562 47.1992C31.9687 47.1992 31.3569 47.1075 30.8206 46.9242C30.2844 46.7404 29.7504 46.4649 29.2187 46.0974V8.83609C29.7504 8.46904 30.2844 8.19729 30.8206 8.02083C31.3569 7.84475 31.9687 7.75671 32.6562 7.75671C34.5102 7.75671 36.102 8.39189 37.4315 9.66224C38.7607 10.933 39.4606 12.4837 39.5312 14.3143V14.5125C39.5312 14.5714 39.5238 14.6302 39.5089 14.689C41.6451 14.9503 43.4462 15.8853 44.9121 17.494C46.3784 19.1024 47.1115 21.0129 47.1115 23.2255C47.1115 24.0803 46.9918 24.9007 46.7523 25.6867C46.5128 26.4724 46.1608 27.2017 45.6964 27.8747C46.0871 28.5183 46.3839 29.2058 46.5867 29.9372C46.7895 30.6686 46.8909 31.4134 46.8909 32.1716C46.8909 34.3632 46.1872 36.2538 44.7797 37.8434C43.3727 39.4327 41.6113 40.3801 39.4957 40.6857C39.3636 42.4927 38.6482 44.03 37.3496 45.2977C36.051 46.5653 34.4865 47.1992 32.6562 47.1992ZM22.3437 47.1992C20.5135 47.1992 18.9395 46.5653 17.6218 45.2977C16.3041 44.03 15.5791 42.4927 15.447 40.6857C13.3463 40.3656 11.5981 39.405 10.2025 37.8039C8.80687 36.2024 8.10906 34.325 8.10906 32.1716C8.10906 31.4134 8.20684 30.6686 8.4024 29.9372C8.59757 29.2058 8.89052 28.5183 9.28125 27.8747C8.81719 27.2017 8.46904 26.4724 8.23682 25.6867C8.0046 24.9007 7.88849 24.0803 7.88849 23.2255C7.88849 21.0278 8.61208 19.1268 10.0593 17.5226C11.5061 15.9185 13.2976 14.9856 15.4338 14.724C15.4189 14.6651 15.4115 14.6063 15.4115 14.5475V14.3493C15.4821 12.5041 16.188 10.944 17.529 9.66911C18.8703 8.39418 20.4753 7.75671 22.3437 7.75671C23.0167 7.75671 23.625 7.85067 24.1685 8.03859C24.712 8.2265 25.2496 8.50418 25.7812 8.87161V46.1198C25.2496 46.4868 24.7156 46.7586 24.1794 46.935C23.6431 47.1111 23.0312 47.1992 22.3437 47.1992Z" fill="white"/>
</g>
</svg>
