<svg width="21" height="20" viewBox="0 0 21 20" fill="none" xmlns="http://www.w3.org/2000/svg">
<mask id="mask0_11_170" style="mask-type:alpha" maskUnits="userSpaceOnUse" x="0" y="0" width="21" height="20">
<rect x="0.5" width="20" height="20" fill="#D9D9D9"/>
</mask>
<g mask="url(#mask0_11_170)">
<path d="M9.85521 8.69062C10.1248 8.69062 10.3523 8.59757 10.5377 8.41146C10.723 8.22535 10.8156 7.99757 10.8156 7.72812C10.8156 7.45854 10.7226 7.23104 10.5365 7.04562C10.3504 6.86035 10.1226 6.76771 9.85313 6.76771C9.58354 6.76771 9.35604 6.86076 9.17063 7.04687C8.98535 7.23299 8.89271 7.46076 8.89271 7.73021C8.89271 7.99979 8.98577 8.22729 9.17188 8.41271C9.35799 8.59799 9.58577 8.69062 9.85521 8.69062ZM17.601 18.0208C17.1085 18.0208 16.3839 17.7697 15.4271 17.2675C14.4704 16.7654 13.4456 16.111 12.3525 15.3044C12.0567 15.4113 11.7519 15.4915 11.4383 15.5448C11.1247 15.5983 10.805 15.625 10.4792 15.625C8.91236 15.625 7.58667 15.0826 6.50209 13.9979C5.41736 12.9133 4.875 11.5876 4.875 10.0208C4.875 9.695 4.90382 9.3718 4.96146 9.05125C5.01924 8.73069 5.10153 8.4225 5.20834 8.12667C4.41556 7.03903 3.77 6.02299 3.27167 5.07854C2.77334 4.1341 2.52417 3.41826 2.52417 2.93104C2.52417 2.65229 2.6016 2.43062 2.75646 2.26604C2.91132 2.10146 3.11854 2.01917 3.37813 2.01917C3.67521 2.01917 4.13334 2.16292 4.7525 2.45042C5.37153 2.73778 6.14792 3.16139 7.08167 3.72125C6.86278 3.83555 6.65952 3.95514 6.47188 4.08C6.28424 4.20472 6.10188 4.33993 5.9248 4.48562C5.58077 4.28479 5.245 4.1034 4.9175 3.94146C4.59 3.77965 4.25535 3.62021 3.91354 3.46312C4.19021 4.05507 4.48959 4.63042 4.81167 5.18917C5.13375 5.74792 5.47861 6.29972 5.84625 6.84458C6.35264 6.09458 7.0075 5.49896 7.81084 5.05771C8.61431 4.61646 9.50375 4.39583 10.4792 4.39583C12.0461 4.39583 13.3753 4.9416 14.4669 6.03312C15.5584 7.12465 16.1042 8.45389 16.1042 10.0208C16.1042 10.9962 15.8814 11.887 15.4358 12.6931C14.9904 13.4992 14.3927 14.1555 13.6427 14.6619C14.1928 15.0348 14.7521 15.3858 15.3204 15.7148C15.8889 16.0438 16.4717 16.3451 17.069 16.6185C16.9205 16.2852 16.7631 15.9549 16.5969 15.6275C16.4308 15.3 16.2473 14.9642 16.0465 14.6202C16.2034 14.4435 16.3447 14.2565 16.4702 14.059C16.5958 13.8616 16.712 13.6587 16.819 13.4504C17.3991 14.4215 17.8264 15.2051 18.1008 15.8012C18.3754 16.3975 18.5127 16.8441 18.5127 17.141C18.5127 17.4263 18.4289 17.6442 18.2613 17.7948C18.0936 17.9455 17.8735 18.0208 17.601 18.0208ZM11.9373 12.4085C12.1415 12.4085 12.3127 12.3395 12.451 12.2015C12.5894 12.0633 12.6585 11.892 12.6585 11.6877C12.6585 11.4835 12.5895 11.3123 12.4515 11.174C12.3133 11.0356 12.142 10.9665 11.9377 10.9665C11.7335 10.9665 11.5623 11.0355 11.424 11.1735C11.2856 11.3117 11.2165 11.483 11.2165 11.6873C11.2165 11.8915 11.2855 12.0627 11.4235 12.201C11.5617 12.3394 11.733 12.4085 11.9373 12.4085ZM12.9856 9.56417C13.1566 9.56417 13.2984 9.50826 13.411 9.39646C13.5238 9.28479 13.5802 9.14354 13.5802 8.97271C13.5802 8.80174 13.5243 8.65993 13.4125 8.54729C13.3008 8.43451 13.1596 8.37812 12.9888 8.37812C12.8178 8.37812 12.676 8.43403 12.5633 8.54583C12.4506 8.6575 12.3942 8.79875 12.3942 8.96958C12.3942 9.14055 12.4501 9.28236 12.5619 9.395C12.6735 9.50778 12.8148 9.56417 12.9856 9.56417Z" fill="#AD46FF"/>
</g>
</svg>
