<svg width="21" height="20" viewBox="0 0 21 20" fill="none" xmlns="http://www.w3.org/2000/svg">
<mask id="mask0_11_251" style="mask-type:alpha" maskUnits="userSpaceOnUse" x="0" y="0" width="21" height="20">
<rect x="0.5" width="20" height="20" fill="#D9D9D9"/>
</mask>
<g mask="url(#mask0_11_251)">
<path d="M11.9583 12.3077C12.1624 12.3077 12.3405 12.2316 12.4927 12.0794C12.6449 11.9272 12.721 11.749 12.721 11.5448C12.721 11.3408 12.6449 11.1627 12.4927 11.0105C12.3405 10.8582 12.1624 10.7821 11.9583 10.7821C11.7543 10.7821 11.5762 10.8582 11.424 11.0105C11.2716 11.1627 11.1954 11.3408 11.1954 11.5448C11.1954 11.749 11.2716 11.9272 11.424 12.0794C11.5762 12.2316 11.7543 12.3077 11.9583 12.3077ZM11.4615 9.80129H12.455C12.4657 9.42518 12.5141 9.14608 12.6002 8.964C12.6862 8.78178 12.8899 8.53525 13.2115 8.22442C13.596 7.85581 13.8578 7.54435 13.9967 7.29004C14.1356 7.03587 14.205 6.74053 14.205 6.404C14.205 5.81094 13.9956 5.32185 13.5769 4.93671C13.1581 4.55157 12.6186 4.359 11.9583 4.359C11.4424 4.359 10.9885 4.50136 10.5969 4.78608C10.2053 5.0708 9.9209 5.45303 9.74354 5.93275L10.6442 6.31087C10.7853 5.97435 10.9661 5.72199 11.1867 5.55379C11.4074 5.38546 11.6646 5.30129 11.9583 5.30129C12.3237 5.30129 12.624 5.40705 12.859 5.61858C13.094 5.83011 13.2115 6.109 13.2115 6.45525C13.2115 6.66567 13.1519 6.86303 13.0329 7.04733C12.9137 7.23164 12.7073 7.45837 12.4135 7.72754C12.0085 8.08226 11.7486 8.38087 11.6337 8.62337C11.5189 8.86601 11.4615 9.25865 11.4615 9.80129ZM7.21479 14.5834C6.79382 14.5834 6.4375 14.4375 6.14583 14.1459C5.85417 13.8542 5.70833 13.4979 5.70833 13.0769V3.58983C5.70833 3.16886 5.85417 2.81254 6.14583 2.52087C6.4375 2.22921 6.79382 2.08337 7.21479 2.08337H16.7019C17.1228 2.08337 17.4792 2.22921 17.7708 2.52087C18.0625 2.81254 18.2083 3.16886 18.2083 3.58983V13.0769C18.2083 13.4979 18.0625 13.8542 17.7708 14.1459C17.4792 14.4375 17.1228 14.5834 16.7019 14.5834H7.21479ZM4.29812 17.5C3.87715 17.5 3.52083 17.3542 3.22917 17.0625C2.9375 16.7709 2.79167 16.4146 2.79167 15.9936V5.2565H4.04167V15.9936C4.04167 16.0578 4.0684 16.1165 4.12187 16.1698C4.17521 16.2233 4.23396 16.25 4.29812 16.25H15.0352V17.5H4.29812Z" fill="#AD46FF"/>
</g>
</svg>
