<svg width="29" height="30" viewBox="0 0 29 30" fill="none" xmlns="http://www.w3.org/2000/svg">
<mask id="mask0_46_162" style="mask-type:alpha" maskUnits="userSpaceOnUse" x="0" y="0" width="29" height="30">
<rect y="0.5" width="29" height="29" fill="#D9D9D9"/>
</mask>
<g mask="url(#mask0_46_162)">
<path d="M3.71563 13.708L8.44203 8.98156C8.70081 8.72298 9.00219 8.53901 9.34616 8.42966C9.68993 8.3205 10.0439 8.30228 10.408 8.37498L12.0486 8.71905C11.0539 9.9149 10.2581 10.9978 9.66093 11.9677C9.06381 12.9373 8.47707 14.1132 7.90069 15.4951L3.71563 13.708ZM9.30417 16.0618C9.79838 14.728 10.4277 13.4613 11.1922 12.2616C11.9567 11.0617 12.8564 9.9444 13.8913 8.90967C15.5318 7.26915 17.3641 6.04179 19.388 5.22757C21.412 4.41356 23.4301 4.11963 25.4424 4.34579C25.6685 6.35807 25.3776 8.37619 24.5697 10.4001C23.7619 12.4241 22.5377 14.2563 20.8972 15.8969C19.8748 16.9193 18.7575 17.8171 17.5453 18.5902C16.3329 19.3632 15.0599 19.9967 13.7261 20.4909L9.30417 16.0618ZM17.2 12.5764C17.609 12.9854 18.1083 13.1899 18.6978 13.1899C19.2872 13.1899 19.7865 12.9854 20.1955 12.5764C20.6043 12.1673 20.8087 11.6701 20.8087 11.0847C20.8087 10.499 20.6043 10.0017 20.1955 9.59268C19.7865 9.18366 19.2872 8.97915 18.6978 8.97915C18.1083 8.97915 17.609 9.18366 17.2 9.59268C16.7912 10.0017 16.5868 10.499 16.5868 11.0847C16.5868 11.6701 16.7912 12.1673 17.2 12.5764ZM16.0754 26.0725L14.2698 21.8875C15.6517 21.3111 16.8307 20.7224 17.8066 20.1215C18.7825 19.5203 19.8685 18.7225 21.0646 17.7281L21.3896 19.3684C21.4625 19.7325 21.4463 20.0897 21.341 20.4399C21.2357 20.7899 21.0536 21.0943 20.7948 21.3531L16.0754 26.0725ZM5.55592 19.9517C6.14478 19.3631 6.85941 19.0676 7.69981 19.0654C8.5402 19.063 9.25473 19.3561 9.84339 19.9448C10.4321 20.5334 10.7264 21.248 10.7264 22.0884C10.7264 22.9288 10.4321 23.6433 9.84339 24.2319C9.38624 24.6891 8.63637 25.0814 7.59378 25.4089C6.55139 25.7365 5.21376 25.9987 3.5809 26.1955C3.77766 24.5628 4.04178 23.2283 4.37327 22.192C4.70475 21.1556 5.09897 20.4089 5.55592 19.9517Z" fill="white"/>
</g>
</svg>
