<svg width="55" height="55" viewBox="0 0 55 55" fill="none" xmlns="http://www.w3.org/2000/svg">
<mask id="mask0_37_1077" style="mask-type:alpha" maskUnits="userSpaceOnUse" x="0" y="0" width="55" height="55">
<rect width="55" height="55" fill="#D9D9D9"/>
</mask>
<g mask="url(#mask0_37_1077)">
<path d="M7.04687 25.0496L16.0107 16.0858C16.5015 15.5954 17.0731 15.2464 17.7255 15.039C18.3774 14.832 19.0487 14.7975 19.7393 14.9354L22.8508 15.5879C20.9644 17.8559 19.4549 19.9096 18.3224 21.749C17.19 23.5881 16.0772 25.8181 14.9841 28.439L7.04687 25.0496ZM17.6458 29.5138C18.5831 26.9842 19.7767 24.5817 21.2266 22.3065C22.6764 20.0309 24.3828 17.9118 26.3456 15.9494C29.4569 12.8381 32.9318 10.5103 36.7704 8.96613C40.6089 7.42231 44.4364 6.86486 48.2528 7.29379C48.6817 11.1102 48.13 14.9376 46.5976 18.7762C45.0656 22.6147 42.744 26.0897 39.6327 29.201C37.6935 31.1401 35.5745 32.8428 33.2756 34.3091C30.9763 35.775 28.5618 36.9766 26.0322 37.9139L17.6458 29.5138ZM32.6207 22.9035C33.3965 23.6792 34.3433 24.0671 35.4612 24.0671C36.5792 24.0671 37.526 23.6792 38.3018 22.9035C39.0771 22.1277 39.4648 21.1847 39.4648 20.0744C39.4648 18.9637 39.0771 18.0205 38.3018 17.2448C37.526 16.469 36.5792 16.0812 35.4612 16.0812C34.3433 16.0812 33.3965 16.469 32.6207 17.2448C31.8454 18.0205 31.4577 18.9637 31.4577 20.0744C31.4577 21.1847 31.8454 22.1277 32.6207 22.9035ZM30.4878 48.4997L27.0634 40.5625C29.6843 39.4694 31.9202 38.3529 33.7711 37.2132C35.622 36.0731 37.6817 34.56 39.9501 32.674L40.5665 35.7849C40.7048 36.4755 40.674 37.1529 40.4743 37.8171C40.2745 38.4809 39.9292 39.0582 39.4384 39.549L30.4878 48.4997ZM10.5371 36.8912C11.6539 35.7748 13.0092 35.2145 14.6031 35.2103C16.1969 35.2057 17.5521 35.7616 18.6685 36.8781C19.7849 37.9945 20.3431 39.3496 20.3431 40.9435C20.3431 42.5373 19.7849 43.8925 18.6685 45.0089C17.8015 45.8759 16.3793 46.6199 14.402 47.241C12.425 47.8624 9.88816 48.3597 6.79135 48.7329C7.16451 45.6364 7.66543 43.1055 8.29411 41.14C8.92279 39.1745 9.67045 37.7583 10.5371 36.8912Z" fill="white"/>
</g>
</svg>
