<svg width="55" height="55" viewBox="0 0 55 55" fill="none" xmlns="http://www.w3.org/2000/svg">
<mask id="mask0_29_404" style="mask-type:alpha" maskUnits="userSpaceOnUse" x="0" y="0" width="55" height="55">
<rect width="55" height="55" fill="#D9D9D9"/>
</mask>
<g mask="url(#mask0_29_404)">
<path d="M40.0336 46.2962H18.4723V19.6776L32.9162 5.04623L34.758 6.92285C34.9844 7.15317 35.1722 7.45818 35.3213 7.83786C35.4708 8.21755 35.5456 8.57524 35.5456 8.91093V9.4738L33.234 19.6776H46.481C47.5166 19.6776 48.4314 20.0822 49.2253 20.8915C50.0195 21.7004 50.4167 22.6325 50.4167 23.6876V27.2706C50.4167 27.5009 50.3929 27.7497 50.3454 28.017C50.2978 28.2843 50.2267 28.5333 50.132 28.764L43.8936 43.7625C43.5812 44.4734 43.0579 45.0734 42.3239 45.5626C41.5899 46.0517 40.8264 46.2962 40.0336 46.2962ZM15.2067 19.6776V46.2962H6.875V19.6776H15.2067Z" fill="white"/>
</g>
</svg>
