<svg width="30" height="30" viewBox="0 0 30 30" fill="none" xmlns="http://www.w3.org/2000/svg">
<mask id="mask0_34_680" style="mask-type:alpha" maskUnits="userSpaceOnUse" x="0" y="0" width="30" height="30">
<rect x="0.5" y="0.5" width="29" height="29" fill="#D9D9D9"/>
</mask>
<g mask="url(#mask0_34_680)">
<path d="M15 14.6281C13.837 14.6281 12.8414 14.2141 12.0133 13.386C11.185 12.5577 10.7708 11.562 10.7708 10.399C10.7708 9.23595 11.185 8.24038 12.0133 7.41227C12.8414 6.58396 13.837 6.1698 15 6.1698C16.163 6.1698 17.1586 6.58396 17.9867 7.41227C18.815 8.24038 19.2292 9.23595 19.2292 10.399C19.2292 11.562 18.815 12.5577 17.9867 13.386C17.1586 14.2141 16.163 14.6281 15 14.6281ZM5.9375 23.8302V21.1438C5.9375 20.5521 6.09821 20.0041 6.41963 19.4998C6.74104 18.9956 7.1706 18.6079 7.70831 18.3368C8.90255 17.7514 10.1074 17.3122 11.3227 17.0194C12.5381 16.7266 13.7639 16.5802 15 16.5802C16.2361 16.5802 17.4619 16.7266 18.6773 17.0194C19.8926 17.3122 21.0975 17.7514 22.2917 18.3368C22.8294 18.6079 23.259 18.9956 23.5804 19.4998C23.9018 20.0041 24.0625 20.5521 24.0625 21.1438V23.8302H5.9375Z" fill="white"/>
</g>
</svg>
