<svg width="113" height="25" viewBox="0 0 113 25" fill="none" xmlns="http://www.w3.org/2000/svg">
<path d="M0 1.11184e-07V12.5H12.4228V6.25C12.4228 5.22908 12.127 3.63826 10.8453 2.09163C9.56355 0.545003 7.3945 1.11184e-07 6.21138 1.11184e-07H0Z" fill="#AD46FF"/>
<path d="M0 25H12.4228V12.5H6.21138C5.19677 12.5 3.61578 12.7976 2.07871 14.0873C0.541635 15.377 8.81785e-08 17.5595 7.40699e-08 18.75L0 25Z" fill="#AD46FF"/>
<path d="M24.8455 25V12.5L12.4228 12.5L12.4228 18.75C12.4228 19.7709 12.7185 21.3617 14.0002 22.9084C15.282 24.455 17.451 25 18.6341 25H24.8455Z" fill="#AD46FF"/>
<path d="M24.8455 5.46392e-07L12.4228 0L12.4228 12.5L18.6341 12.5C19.6487 12.5 21.2297 12.2024 22.7668 10.9127C24.3039 9.62302 24.8455 7.44048 24.8455 6.25V5.46392e-07Z" fill="#AD46FF"/>
<path d="M33.0756 20.9375L38.2 4.0625H42.9284L48.0528 20.9375H44.7918L40.2264 6.05469H40.832L36.3366 20.9375H33.0756ZM36.1502 17.4219V14.4453H45.0014V17.4219H36.1502Z" fill="#AD46FF" fill-opacity="0.3"/>
<path d="M49.9073 20.9375V4.0625H53.0751V20.9375H49.9073Z" fill="#AD46FF" fill-opacity="0.3"/>
<path d="M56.1007 20.9375V4.0625H67.0483V7.03906H59.2686V10.6484H65.6507V13.625H59.2686V17.9609H67.0483V20.9375H56.1007Z" fill="#AD46FF"/>
<path d="M67.9764 20.9375L72.4719 14.5391L68.0695 8.28125H71.7964L74.312 12.0312L76.781 8.28125H80.5078L76.1055 14.5391L80.6243 20.9375H76.8975L74.312 17.0469L71.7032 20.9375H67.9764Z" fill="#AD46FF"/>
<path d="M85.0719 21.2891C84.1713 21.2891 83.4065 21.1172 82.7776 20.7734C82.1564 20.4219 81.6828 19.957 81.3567 19.3789C81.0384 18.793 80.8792 18.1484 80.8792 17.4453C80.8792 16.8594 80.9685 16.3242 81.1471 15.8398C81.3257 15.3555 81.613 14.9297 82.0089 14.5625C82.4127 14.1875 82.9523 13.875 83.6278 13.625C84.0936 13.4531 84.6488 13.3008 85.2932 13.168C85.9376 13.0352 86.6675 12.9102 87.4827 12.793C88.298 12.668 89.1947 12.5312 90.173 12.3828L89.0317 13.0156C89.0317 12.2656 88.8531 11.7148 88.4959 11.3633C88.1388 11.0117 87.5409 10.8359 86.7024 10.8359C86.2365 10.8359 85.7513 10.9492 85.2466 11.1758C84.7419 11.4023 84.3887 11.8047 84.1868 12.3828L81.3218 11.4688C81.6401 10.4219 82.238 9.57031 83.1153 8.91406C83.9927 8.25781 85.1884 7.92969 86.7024 7.92969C87.8127 7.92969 88.7987 8.10156 89.6606 8.44531C90.5224 8.78906 91.1746 9.38281 91.6171 10.2266C91.8656 10.6953 92.0131 11.1641 92.0597 11.6328C92.1063 12.1016 92.1296 12.625 92.1296 13.2031V20.9375H89.3578V18.3359L89.7537 18.875C89.1404 19.7266 88.4765 20.3438 87.7622 20.7266C87.0557 21.1016 86.1589 21.2891 85.0719 21.2891ZM85.7474 18.7812C86.3297 18.7812 86.8189 18.6797 87.2148 18.4766C87.6186 18.2656 87.9369 18.0273 88.1698 17.7617C88.4105 17.4961 88.5736 17.2734 88.659 17.0938C88.822 16.75 88.9152 16.3516 88.9385 15.8984C88.9696 15.4375 88.9851 15.0547 88.9851 14.75L89.9168 14.9844C88.9773 15.1406 88.2164 15.2734 87.6341 15.3828C87.0518 15.4844 86.582 15.5781 86.2249 15.6641C85.8677 15.75 85.5533 15.8437 85.2815 15.9453C84.971 16.0703 84.7186 16.207 84.5245 16.3555C84.3382 16.4961 84.1984 16.6523 84.1053 16.8242C84.0199 16.9961 83.9772 17.1875 83.9772 17.3984C83.9772 17.6875 84.047 17.9375 84.1868 18.1484C84.3343 18.3516 84.5401 18.5078 84.804 18.6172C85.068 18.7266 85.3825 18.7812 85.7474 18.7812Z" fill="#AD46FF"/>
<path d="M109.832 20.9375V13.4609C109.832 12.625 109.634 11.9766 109.238 11.5156C108.85 11.0469 108.31 10.8125 107.619 10.8125C107.177 10.8125 106.793 10.918 106.466 11.1289C106.14 11.332 105.884 11.6211 105.698 11.9961C105.519 12.3633 105.43 12.7891 105.43 13.2734L104.102 12.3828C104.102 11.5156 104.304 10.75 104.708 10.0859C105.119 9.42187 105.667 8.90625 106.35 8.53906C107.041 8.16406 107.806 7.97656 108.644 7.97656C110.081 7.97656 111.164 8.40625 111.894 9.26562C112.631 10.1172 113 11.2344 113 12.6172V20.9375H109.832ZM94.6687 20.9375V8.28125H97.4638V12.4766H97.8598V20.9375H94.6687ZM102.262 20.9375V13.4609C102.262 12.625 102.064 11.9766 101.668 11.5156C101.28 11.0469 100.74 10.8125 100.049 10.8125C99.3893 10.8125 98.8575 11.043 98.4537 11.5039C98.0578 11.957 97.8598 12.5469 97.8598 13.2734L96.5321 12.3359C96.5321 11.5078 96.7378 10.7656 97.1493 10.1094C97.5608 9.45312 98.1121 8.93359 98.8031 8.55078C99.5019 8.16797 100.282 7.97656 101.144 7.97656C102.13 7.97656 102.938 8.1875 103.566 8.60938C104.203 9.03125 104.673 9.59375 104.976 10.2969C105.278 11 105.43 11.7734 105.43 12.6172V20.9375H102.262Z" fill="#AD46FF"/>
</svg>
